PathFileType  4	(X/Y/Z) C:\Users\antoi\Documents\MyRepositories\mobilecap\ResultsAnalysis
DataRate	CameraRate	NumFrames	NumMarkers	Units	OrigDataRate	OrigDataStartFrame	OrigNumFrames
100.0	100.0	4	51	mm	100.0	262	299
Frame#	Time	r_knee			r_shank_antsup			r_ankle			r_calc			r_5meta			r_toe			L_knee			L_shank_antsup			L_ankle			L_calc			L_5meta			L_toe			r_sh2			r_sh3			r_sh4			L_sh2			L_sh3			r_thigh1			r_thigh2			r_thigh3			r_thigh4			r_thigh5			L_thigh1			L_thigh2			L_thigh3			L_thigh4			r.ASIS			r.PSIS			L.ASIS			L.PSIS			C7			R_Shoulder			L_Shoulder			R_Sternum			L_Sternum			R_humerus			R_elbow_med			R_elbow_lat			R_forearm			R_wrist_radius			R_wrist_ulna			L_humerus			L_elbow_med			L_elbow_lat			L_forearm			L_wrist_radius			L_wrist_ulna			R_HJC			L_HJC			R_HJC_reg			L_HJC_reg			
		X1	Y1	Z1	X2	Y2	Z2	X3	Y3	Z3	X4	Y4	Z4	X5	Y5	Z5	X6	Y6	Z6	X7	Y7	Z7	X8	Y8	Z8	X9	Y9	Z9	X10	Y10	Z10	X11	Y11	Z11	X12	Y12	Z12	X13	Y13	Z13	X14	Y14	Z14	X15	Y15	Z15	X16	Y16	Z16	X17	Y17	Z17	X18	Y18	Z18	X19	Y19	Z19	X20	Y20	Z20	X21	Y21	Z21	X22	Y22	Z22	X23	Y23	Z23	X24	Y24	Z24	X25	Y25	Z25	X26	Y26	Z26	X27	Y27	Z27	X28	Y28	Z28	X29	Y29	Z29	X30	Y30	Z30	X31	Y31	Z31	X32	Y32	Z32	X33	Y33	Z33	X34	Y34	Z34	X35	Y35	Z35	X36	Y36	Z36	X37	Y37	Z37	X38	Y38	Z38	X39	Y39	Z39	X40	Y40	Z40	X41	Y41	Z41	X42	Y42	Z42	X43	Y43	Z43	X44	Y44	Z44	X45	Y45	Z45	X46	Y46	Z46	X47	Y47	Z47	X48	Y48	Z48	X49	Y49	Z49	X50	Y50	Z50	X51	Y51	Z51	

262	2.61000000	-147.02505	579.42193	-298.13434	-109.80210	469.86020	-300.57800	-181.32407	194.06537	-322.12891	-220.89871	198.53827	-383.93554	-127.00564	76.26738	-288.82617	-77.54569	69.70332	-320.13018	-120.93777	630.97108	-707.06507	-75.97254	523.40680	-689.40136	-191.91377	249.72843	-723.39348	-232.87483	243.91323	-672.45252	-116.11508	123.51771	-733.20407	-61.69039	134.03399	-694.24716	-114.47621	355.77744	-309.32626	-175.11249	467.15758	-263.43173	-193.24464	358.66654	-285.19547	-141.65830	558.54447	-741.09081	-165.38568	439.29516	-759.86766	-81.54074	888.21342	-317.82775	-68.19725	780.74350	-310.14269	-110.44303	750.24556	-268.85367	-184.79270	874.51687	-275.54590	-165.86650	760.92016	-266.36955	-113.97387	932.05829	-679.26379	-70.14810	799.88125	-698.23293	-221.69937	904.96991	-694.56447	-176.83857	770.82704	-710.97572	-59.40214	1027.69560	-361.27545	-230.83600	1120.07707	-396.64559	-84.17790	1072.91164	-593.52934	-246.03305	1141.40282	-507.62123	-148.67446	1553.68003	-406.00811	-98.81613	1526.68489	-276.90640	-110.40455	1565.96219	-541.16190	-25.37844	1499.46941	-404.80329	-19.08690	1517.55983	-435.26078	-83.94054	1447.80772	-174.32642	-133.67388	1249.40264	-112.03680	-120.70396	1298.75363	-55.61528	-13.77390	1248.46799	3.07179	70.15358	1197.82087	35.64463	46.30892	1184.77930	63.01129	-129.09313	1502.73054	-675.70648	-200.74525	1331.16601	-768.96406	-215.84401	1393.26253	-805.47572	-145.62867	1386.48651	-884.87646	-52.03444	1341.35381	-966.38929	-74.73385	1332.42662	-985.69321	-165.41386	982.89104	-383.45877	-179.61676	1013.07972	-569.87357	-145.93115	984.91025	-391.64828	-166.85814	1014.27719	-544.47420	
263	2.62000000	-142.74215	557.21394	-296.54069	-105.71119	446.97451	-299.22897	-183.11809	171.75934	-322.14009	-223.15294	177.40579	-383.53692	-128.88621	57.23499	-287.60122	-79.27262	50.59774	-320.58271	-116.28126	608.96102	-704.70956	-70.47522	501.65352	-688.38862	-188.12281	228.45883	-718.58801	-227.81729	220.85445	-666.45784	-111.32519	103.60801	-733.55636	-56.05016	113.37993	-695.62733	-111.41973	333.18652	-307.57906	-170.66464	445.25056	-261.32586	-189.90661	336.61047	-282.67420	-137.39017	536.86882	-738.62049	-161.57855	417.15950	-756.62360	-82.08698	866.97519	-316.59059	-67.12917	759.69843	-309.01682	-109.11444	728.46320	-268.01980	-185.22884	851.73208	-274.69837	-164.64820	738.36113	-265.45675	-112.83576	909.87184	-676.85009	-67.15107	778.23109	-695.07874	-220.07391	881.21069	-693.21053	-173.34088	747.48133	-708.40883	-61.40817	1004.81023	-359.17689	-232.76631	1098.08426	-395.87444	-85.14620	1049.95148	-591.08297	-247.67840	1119.00719	-507.02654	-144.49465	1530.20048	-403.96263	-94.35392	1501.24682	-274.15168	-105.72866	1542.00779	-540.29539	-21.96820	1474.21421	-402.44234	-15.24541	1492.51791	-433.67466	-79.70249	1417.79052	-174.79731	-133.70319	1219.71225	-117.77191	-118.81008	1266.97023	-59.56368	-12.85038	1212.20400	-3.88032	69.83047	1158.21353	26.37261	45.89215	1145.20744	53.71796	-127.87624	1475.97965	-673.14508	-206.15827	1304.09780	-758.91598	-220.40075	1364.82276	-797.87384	-150.18474	1353.53498	-877.16631	-56.46394	1303.89363	-956.02657	-78.93769	1294.98787	-975.00893	-167.81183	960.53163	-381.81683	-180.83499	990.36424	-568.37797	-147.89646	962.88164	-389.34615	-168.38209	991.62417	-542.02957	
264	2.63000000	-137.11112	534.53117	-294.38346	-102.68589	420.41327	-298.24154	-198.02152	153.36209	-323.28910	-240.68309	151.76164	-384.58588	-135.69467	45.04405	-287.34589	-86.29525	43.41737	-321.98034	-110.58098	586.38537	-702.71941	-64.68138	478.86801	-686.80341	-183.98982	207.10896	-714.81014	-222.25790	197.79795	-661.57780	-107.18068	83.54360	-735.52158	-51.16663	91.70097	-698.34125	-114.45800	308.51550	-307.34703	-166.38091	421.86053	-258.07220	-192.49042	315.32898	-281.74304	-131.50519	514.22046	-736.92803	-156.61753	394.48644	-753.87769	-83.37704	845.25395	-315.01868	-66.01058	738.06340	-307.27747	-107.82591	706.48379	-265.99165	-186.28275	827.95375	-273.37472	-163.43172	714.97636	-263.88154	-111.88505	886.96590	-674.18533	-63.94321	756.08748	-692.22483	-218.37074	856.71468	-691.76108	-169.52405	723.80398	-706.48509	-64.86665	980.95582	-357.10421	-235.35053	1074.98914	-394.96961	-86.61406	1025.72322	-589.14869	-249.80172	1095.25130	-506.72510	-140.03819	1505.80989	-402.21849	-90.01513	1474.97093	-271.72443	-100.78865	1516.79489	-539.71404	-17.92324	1448.14100	-400.08283	-11.26843	1466.11762	-432.26938	-75.82407	1387.32029	-175.36347	-133.76676	1189.67730	-123.25406	-116.72298	1234.80205	-63.71531	-11.86028	1175.77698	-11.28611	69.46894	1118.60454	16.70161	45.46401	1105.82302	44.18429	-126.37241	1448.19599	-670.73685	-211.55338	1276.32170	-749.52953	-224.67348	1336.20362	-790.38556	-154.20537	1320.70479	-869.59650	-60.76301	1266.35814	-945.30303	-82.92957	1257.67907	-964.15915	-171.15304	937.06191	-380.29867	-182.75118	966.41831	-567.02792	-151.06042	940.01425	-387.15050	-170.82920	967.73352	-540.04186	
265	2.64000000	-127.47087	512.32654	-293.23468	-99.30382	393.38614	-299.79111	-220.72298	140.12422	-324.88522	-268.15732	125.08321	-384.67792	-144.10953	39.90914	-286.91974	-95.93809	46.43333	-322.15883	-103.76907	563.08327	-700.60530	-58.09803	455.72036	-684.05860	-180.09577	186.38280	-712.74987	-217.51035	176.85770	-658.70070	-104.98450	64.07557	-737.19918	-48.61945	69.58000	-699.74562	-123.36500	284.46971	-310.52070	-161.06914	400.95488	-257.10166	-199.87373	299.07758	-283.64219	-123.91252	491.16876	-735.31214	-149.93689	371.94836	-751.83635	-85.47649	824.48698	-312.64573	-63.89408	717.83857	-304.25702	-105.34834	685.59108	-262.56888	-188.01393	803.61829	-271.90177	-161.02725	691.58506	-261.93215	-111.09057	863.20097	-671.31191	-60.35164	733.60114	-689.65878	-216.78766	831.12175	-690.18506	-165.19941	699.28030	-704.73077	-70.06170	956.21860	-355.20821	-239.02126	1051.26008	-394.03421	-87.99110	1000.74913	-587.61379	-252.42986	1070.58549	-506.62017	-135.40504	1480.72739	-400.63003	-85.86103	1448.15445	-269.30322	-95.76840	1490.51478	-538.65531	-13.02241	1421.54509	-397.35104	-7.15382	1438.71824	-430.70276	-72.10759	1357.09203	-175.31822	-133.66666	1159.23338	-128.26986	-114.54265	1202.30980	-67.97627	-10.83969	1139.31602	-18.85780	69.06292	1079.11338	6.93184	44.98461	1066.58988	34.48357	-124.61884	1419.27250	-668.17646	-216.61033	1248.29375	-740.83973	-228.47479	1307.47254	-783.28960	-157.47716	1287.93843	-861.74796	-64.79037	1229.82155	-937.49654	-86.69095	1220.57386	-953.31639	-175.72638	912.69023	-379.19099	-185.16499	941.86210	-566.06416	-155.67424	916.81470	-385.40276	-173.93489	943.13210	-538.72833	
